<svg xmlns="http://www.w3.org/2000/svg" width="26" height="22" viewBox="0 0 26 22">
  <path id="icons8-contact" d="M4,3A2,2,0,0,0,2,5V23a2,2,0,0,0,2,2H6v-.5a1.5,1.5,0,0,1,3,0V25H21v-.5a1.5,1.5,0,0,1,3,0V25h2a2,2,0,0,0,2-2V7a2,2,0,0,0-2-2H11.2l-.617-1.029A2,2,0,0,0,8.867,3Zm6,6a1.316,1.316,0,0,1,1.25.678c.853,0,1.25.933,1.25,2.029a2.542,2.542,0,0,1-.221,1,.549.549,0,0,1,.2.541c-.068.579-.3.726-.447.738a2.373,2.373,0,0,1-.779,1.332v.9c.374,1.217,2.2.62,2.75,2.777H6c.55-2.157,2.376-1.56,2.75-2.777v-.9a2.373,2.373,0,0,1-.779-1.332c-.147-.012-.379-.159-.447-.738a.545.545,0,0,1,.2-.541,2.883,2.883,0,0,1-.219-1A2.4,2.4,0,0,1,10,9Zm7,3h6a1,1,0,0,1,0,2H17a1,1,0,0,1,0-2Zm0,4h6a1,1,0,0,1,0,2H17a1,1,0,0,1,0-2Z" transform="translate(-2 -3)" fill="#353a5d"/>
</svg>
